<?xml version="1.0" encoding="UTF-8" standalone="no"?>
<!-- Created with Inkscape (http://www.inkscape.org/) -->

<svg
   version="1.1"
   id="svg2"
   width="867.5733"
   height="962.89331"
   viewBox="0 0 867.5733 962.89331"
   sodipodi:docname="Fooniks.eps"
   xmlns:inkscape="http://www.inkscape.org/namespaces/inkscape"
   xmlns:sodipodi="http://sodipodi.sourceforge.net/DTD/sodipodi-0.dtd"
   xmlns="http://www.w3.org/2000/svg"
   xmlns:svg="http://www.w3.org/2000/svg">
  <defs
     id="defs6" />
  <sodipodi:namedview
     id="namedview4"
     pagecolor="#ffffff"
     bordercolor="#000000"
     borderopacity="0.25"
     inkscape:showpageshadow="2"
     inkscape:pageopacity="0.0"
     inkscape:pagecheckerboard="0"
     inkscape:deskcolor="#d1d1d1" />
  <g
     id="g8"
     inkscape:groupmode="layer"
     inkscape:label="ink_ext_XXXXXX"
     transform="matrix(1.3333333,0,0,-1.3333333,0,962.89333)">
    <g
       id="g10"
       transform="scale(0.1)">
      <path
         d="m 4751.63,846.57 -21.58,66.77 221.37,-73.692 155.63,-152.648 36.03,-132.82 20.64,126.711 -279.25,337.699 -428.76,24.81 -369.37,369.4 c 120.98,122.89 273.1,683.92 273.1,683.92 -20.49,286.53 -266.06,132.99 -266.06,132.99 l -255.89,-880.07 581.18,-470.558 c 31.07,-74.34 41.58,-144.75 41.58,-144.75 l -5.82,-257.23 -51.61,-80.461 85.02,-9.059 70.09,322.02 C 4820.09,481.148 4697.31,-0.0117188 4697.31,-0.0117188 4979.36,227.832 4637.77,787.051 4637.77,787.051 4801.8,712.328 4887.04,638.762 5045.55,378.32 c 158.5,-260.371 11.87,-359.3512 11.87,-359.3512 0,0 150.27,-1.6602 121.5,266.4222 -28.81,268.07 -427.29,561.179 -427.29,561.179"
         style="fill:#100f0d;fill-opacity:1;fill-rule:nonzero;stroke:none"
         id="path12" />
      <path
         d="m 1730.93,846.57 21.59,66.77 L 1531.14,839.648 1375.5,687 l -36.02,-132.82 -20.64,126.711 279.25,337.699 428.76,24.81 369.37,369.4 c -120.97,122.89 -273.09,683.92 -273.09,683.92 20.49,286.53 266.06,132.99 266.06,132.99 l 255.88,-880.07 -581.18,-470.558 c -31.07,-74.34 -41.58,-144.75 -41.58,-144.75 l 5.83,-257.23 51.59,-80.461 -85.01,-9.059 -70.09,322.02 C 1662.47,481.148 1785.26,-0.0117188 1785.26,-0.0117188 1503.21,227.832 1844.79,787.051 1844.79,787.051 1680.77,712.328 1595.52,638.762 1437.01,378.32 1278.51,117.949 1425.14,18.9688 1425.14,18.9688 c 0,0 -150.27,-1.6602 -121.5,266.4222 28.81,268.07 427.29,561.179 427.29,561.179"
         style="fill:#100f0d;fill-opacity:1;fill-rule:nonzero;stroke:none"
         id="path14" />
      <path
         d="m 2792.62,1604.42 c 15.05,-7.79 29.53,-16.96 43.31,-27.01 13.91,-9.97 27.45,-20.71 40.24,-32.39 25.77,-23.23 50.02,-49.36 70.82,-79.38 21.16,-29.81 39.04,-63.53 51.99,-101.15 12.85,-37.53 20.52,-79.32 19.42,-122.77 -0.87,-43.32 -9.89,-87.91 -26.24,-128.91 -16.23,-41.33 -38.38,-78.91 -63.22,-110.05 -49.71,-63.549 -110.05,-100.408 -165.7,-133.901 -55.87,-33.007 -108.53,-62.769 -156.04,-95.058 -47.36,-32.281 -89.73,-66.969 -123.12,-109.031 -8.83,-10.348 -15.82,-21.661 -23.5,-33 -6.7,-11.688 -13.74,-23.551 -19.43,-36.18 -6.67,-12.352 -10.76,-25.75 -16.16,-39.09 -3.69,-13.738 -8.77,-27.539 -11.24,-42.07 -13.19,-57.758 -14.66,-121.168 -10.29,-185.77 l -10.1,-2.941 c -31.19,57.703 -53.69,121.64 -63.04,191.441 -2.93,17.41 -2.65,35.199 -3.72,53.211 0.75,17.899 0.44,36.301 3.2,54.481 3.75,36.707 13.68,73.168 27.04,108.218 6.37,17.828 14.6,34.539 22.74,51.571 8.82,16.379 17.99,32.8 28.12,48.179 19.95,31.051 42.31,60.239 65.54,86.989 23.23,26.871 47.43,52 71.36,75.961 24.03,23.66 47.88,46.32 70.77,68.32 22.97,21.77 44.6,42.95 65.41,62.33 20.9,19.32 40.99,36.49 59.47,51.75 18.46,15.56 35.46,28.9 49.51,43.72 13.99,15.02 26.17,31.44 35.55,51.04 19.12,38.7 25.55,91.81 18.41,149.86 -6.93,58.16 -24.98,119.84 -51.1,181.63"
         style="fill:#100f0d;fill-opacity:1;fill-rule:nonzero;stroke:none"
         id="path16" />
      <path
         d="m 3685.42,1604.42 c -15.06,-7.79 -29.53,-16.96 -43.31,-27.01 -13.92,-9.97 -27.45,-20.71 -40.24,-32.39 -25.76,-23.23 -50.02,-49.36 -70.82,-79.38 -21.16,-29.81 -39.05,-63.53 -52,-101.15 -12.85,-37.53 -20.51,-79.32 -19.41,-122.77 0.87,-43.32 9.88,-87.91 26.24,-128.91 16.22,-41.33 38.38,-78.91 63.22,-110.05 49.7,-63.549 110.05,-100.408 165.7,-133.901 55.87,-33.007 108.52,-62.769 156.03,-95.058 47.37,-32.281 89.74,-66.969 123.12,-109.031 8.84,-10.348 15.83,-21.661 23.51,-33 6.69,-11.688 13.73,-23.551 19.43,-36.18 6.67,-12.352 10.76,-25.75 16.16,-39.09 3.69,-13.738 8.77,-27.539 11.24,-42.07 13.18,-57.758 14.66,-121.168 10.29,-185.77 l 10.1,-2.941 c 31.19,57.703 53.68,121.64 63.04,191.441 2.93,17.41 2.65,35.199 3.72,53.211 -0.75,17.899 -0.44,36.301 -3.21,54.481 -3.74,36.707 -13.68,73.168 -27.04,108.218 -6.36,17.828 -14.59,34.539 -22.73,51.571 -8.82,16.379 -17.99,32.8 -28.13,48.179 -19.95,31.051 -42.3,60.239 -65.53,86.989 -23.23,26.871 -47.44,52 -71.36,75.961 -24.03,23.66 -47.88,46.32 -70.77,68.32 -22.97,21.77 -44.6,42.95 -65.41,62.33 -20.9,19.32 -41,36.49 -59.48,51.75 -18.45,15.56 -35.45,28.9 -49.51,43.72 -13.98,15.02 -26.16,31.44 -35.54,51.04 -19.12,38.7 -25.55,91.81 -18.41,149.86 6.93,58.16 24.98,119.84 51.1,181.63"
         style="fill:#100f0d;fill-opacity:1;fill-rule:nonzero;stroke:none"
         id="path18" />
      <path
         d="m 3246.54,1446.73 c 18.44,-30.13 31.92,-60.28 43.91,-90.42 11.7,-30.13 21.98,-60.28 30.12,-90.42 16.59,-60.28 27.21,-120.56 33.33,-180.84 6.48,-60.28 6.84,-120.562 6.07,-180.851 -0.71,-60.269 -2.42,-120.551 -5.32,-180.84 -5.79,-120.55 -16.34,-241.117 -33.06,-361.679 -17.55,-120.559 -38.3,-241.121 -75.05,-361.6917188 h -10.51 C 3199.27,120.559 3178.52,241.121 3160.97,361.68 c -16.73,120.562 -27.27,241.129 -33.06,361.679 -2.89,60.289 -4.6,120.571 -5.32,180.84 -0.78,60.289 -0.41,120.571 6.08,180.851 6.1,60.28 16.73,120.56 33.33,180.84 8.13,30.14 18.41,60.29 30.12,90.42 11.98,30.14 25.46,60.29 43.91,90.42 h 10.51"
         style="fill:#100f0d;fill-opacity:1;fill-rule:nonzero;stroke:none"
         id="path20" />
      <path
         d="m 2917.47,723.73 c -3.1,-28.988 -7.62,-54.539 -11.9,-79.289 -4.41,-24.613 -8.84,-48.05 -13.3,-70.75 -8.92,-45.382 -17.92,-87.859 -25.32,-130.859 -3.48,-21.531 -5.97,-43.152 -8.23,-65.152 -2.17,-22.008 -3.12,-44.321 -4.39,-67.469 -0.01,-22.922 -1.14,-46.91 -0.24,-71.609 0.03,-24.973 1.65,-50.461 1.04,-78.692 l -9.4,-4.711 c -22.36,17.313 -41.44,37.981 -57.22,61 -16.33,22.813 -28.81,48.172 -39.06,74.641 -9.67,26.629 -16.82,54.539 -20.27,83.019 -3.36,28.469 -3.96,57.411 -1.25,86.02 5.3,57.18 22.96,113.051 53.44,160.66 15.17,23.832 33.5,45.582 54.52,64.582 21.22,18.809 44.66,35.508 73.64,45.508 l 7.94,-6.899"
         style="fill:#100f0d;fill-opacity:1;fill-rule:nonzero;stroke:none"
         id="path22" />
      <path
         d="m 3519.62,730.629 c 28.99,-10 52.43,-26.699 73.64,-45.508 21.02,-19 39.35,-40.75 54.52,-64.582 30.49,-47.609 48.14,-103.48 53.45,-160.66 2.71,-28.609 2.1,-57.551 -1.25,-86.02 -3.46,-28.48 -10.6,-56.39 -20.28,-83.019 -10.25,-26.469 -22.74,-51.828 -39.06,-74.641 -15.78,-23.019 -34.86,-43.687 -57.21,-61 l -9.41,4.711 c -0.61,28.231 1.01,53.719 1.05,78.692 0.9,24.699 -0.23,48.687 -0.24,71.609 -1.27,23.148 -2.22,45.461 -4.4,67.469 -2.25,22 -4.75,43.621 -8.23,65.152 -7.39,43 -16.4,85.477 -25.32,130.859 -4.45,22.7 -8.88,46.137 -13.3,70.75 -4.27,24.75 -8.79,50.301 -11.9,79.289 l 7.94,6.899"
         style="fill:#100f0d;fill-opacity:1;fill-rule:nonzero;stroke:none"
         id="path24" />
      <path
         d="m 4805.58,3845.3 -0.11,0.11 c 0,0 0.21,0 0.21,0.1 z M 3150.24,5084.86 c 3.47,55.61 15.87,108.91 35.95,158.64 58.88,-18.93 122.27,-27.45 187.77,-23.55 26.7,1.68 52.66,5.25 77.99,10.72 -78.94,-78.74 -183.76,-132.04 -301.71,-145.81 z m -1451.39,-1234.83 -0.21,0.32 c 0,-0.11 0.63,0.1 0.21,-0.32 z m -537.4,2384.18 c -0.63,-0.32 -0.84,-0.73 -1.69,-0.94 -0.32,-0.11 -0.73,-0.22 -1.05,-0.32 l 0.21,2.63 c 0.74,-0.11 2.42,-0.42 2.42,-0.42 l 0.11,-0.32 c 0.21,-0.21 0.31,-0.52 0,-0.63 z m -97.98,-387.71 v 0.84 c 0.73,-0.31 0.53,-0.63 0,-0.84 z m 338.19,635.29 c 0.31,-0.42 0.1,-0.53 -0.32,-0.53 z m 3643.29,24.07 c -0.52,-0.1 -0.63,0.1 -1.05,0.1 h -0.42 c 0.11,0.22 0.62,0.64 0.95,0.95 l 0.62,-1.05 z m 296.35,-262.71 0.32,0.31 c 0,0.11 1.78,0.42 2.52,0.53 l 0.21,-3.15 c -0.52,0.21 -1.05,0.41 -1.58,0.62 -0.84,0.22 -0.94,0.74 -1.47,1.06 -0.31,0.1 -0.21,0.42 0,0.63 z m 100.4,-385.29 v -1.16 c -0.74,0.42 -0.95,0.74 0,1.16 z M 4903.14,3450.24 c 86.3,-16.72 173.14,-26.18 259.65,-29.96 86.64,-3.58 172.94,-0.95 258.3,7.99 85.26,8.72 169.47,24.91 251.36,46.35 41.11,10.1 81.26,23.76 121.32,36.59 39.42,15.03 79.05,28.6 117.01,46.26 l 28.69,12.51 14.3,6.3 13.99,7.04 55.72,27.97 c 18.6,9.15 36.27,20.18 54.34,30.17 17.87,10.41 36.06,20.08 53.2,31.65 139.61,87.57 265.03,192.28 375.83,308.34 l -6.94,7.98 c -129.52,-93.66 -268.49,-171.46 -413.15,-228.75 -17.76,-7.89 -36.48,-13.67 -54.67,-20.19 -18.4,-6.1 -36.27,-13.35 -54.87,-18.5 l -55.51,-16.19 -13.88,-3.99 -13.98,-3.27 -28.07,-6.51 c -37,-9.57 -74.95,-15.14 -112.17,-22.08 -37.74,-4.73 -75.05,-10.19 -112.8,-12.4 -150.33,-11.78 -300.24,0.95 -443.53,33.85 -21.56,4.94 -43,10.41 -64.23,16.3 61.81,74.32 119,152.64 171.14,234.43 15.88,1.26 31.54,2.84 47.31,4.52 54.24,5.99 107.76,14.5 160.84,25.33 105.97,21.55 209.84,53.83 308.34,97.66 49.1,22.5 96.62,48.05 141.93,76.85 45.3,28.6 87.57,61.92 126.68,97.67 l 28.59,27.44 26.81,29.11 c 9.03,9.36 17.13,19.88 25.22,30.07 7.99,10.41 16.72,20.08 23.76,31.12 l 21.98,31.96 c 7.04,10.83 13.14,22.28 19.65,33.22 l 9.67,16.61 c 2.95,5.68 5.69,11.46 8.52,17.24 l 16.51,34.16 -8.94,5.47 -24.5,-28.28 c -4.1,-4.62 -7.98,-9.46 -12.19,-13.98 l -13.14,-13.04 c -8.84,-8.61 -17.14,-17.55 -26.28,-25.65 l -27.75,-23.86 c -8.84,-8.2 -19.24,-14.82 -28.81,-22.18 -9.67,-7.15 -19.13,-14.51 -29.54,-20.71 l -30.17,-19.24 -31.34,-17.14 c -42.25,-21.76 -85.56,-40.37 -130.45,-54.35 -44.79,-13.98 -90.2,-24.7 -136.15,-32.37 -92.29,-14.52 -185.64,-18.09 -278.47,-12.41 -11.99,0.74 -24.08,1.58 -36.07,2.63 44.16,95.56 82,194.59 112.81,296.67 94.4,20.6 187.76,49.19 276.9,88.93 45.11,20.4 88.84,44.16 130.25,71.49 41.54,27.12 80.43,59.08 114.17,95.24 33.65,36.27 62.87,76.22 83.48,119.85 20.61,43.52 33.21,89.04 39.52,134.14 l -10.09,2.94 c -20.29,-39.84 -45.42,-75.58 -74.85,-105.75 -29.54,-30.17 -64.02,-53.62 -99.87,-72.65 -35.95,-18.92 -74.01,-33 -113.43,-42.68 -39.32,-9.88 -79.38,-16.5 -120.06,-20.18 -53.51,-4.42 -107.44,-4.73 -161.37,-1.47 16.4,93.04 27.34,187.86 32.39,284.36 1.77,0.53 3.46,1.16 5.25,1.79 75.69,27.23 149.8,62.45 215.82,112.17 32.91,24.71 63.5,52.88 90.1,84.32 26.28,31.74 47.94,67.07 63.6,103.65 16.29,36.48 24.91,75.06 28.8,112.38 4.84,37.43 1.47,74.33 -2.41,109.65 l -10.52,0.42 c -17.34,-68.02 -48.36,-129.62 -93.24,-172.41 -22.19,-21.55 -46.68,-39.11 -72.96,-52.88 -26.49,-13.46 -54.45,-23.55 -83.26,-30.8 -45.42,-11.67 -93.25,-15.98 -141.51,-15.87 -4.94,89.99 -14.92,178.5 -29.85,265.55 6.09,3.04 12.09,6.2 18.08,9.46 63.6,34.48 123.42,78.95 171.04,134.45 23.65,27.76 44.58,57.51 60.45,89.47 15.77,31.75 27.86,64.55 35.01,97.56 14.3,66.23 11.36,130.67 -0.42,190.28 l -10.52,0.21 c -15.24,-57.93 -39.73,-111.33 -73.05,-153.07 -33.75,-41.63 -74.86,-70.96 -119.53,-88.72 -43.74,-17.98 -91.05,-25.97 -138.77,-27.24 -14.41,49.73 -30.39,98.83 -47.94,147.18 23.86,17.45 46.04,37.12 65.91,58.66 28.6,30.91 51.94,66.13 69.07,102.71 17.24,36.48 27.55,74.43 32.91,111.02 5.36,36.69 6.09,72.32 2.73,106.28 -1.05,17.03 -4.1,33.54 -6.73,49.83 -2.84,16.19 -6.83,31.96 -10.52,47.63 -16.81,62.02 -41.1,118.79 -68.64,172.61 l -10.1,-2.73 c 1.48,-59.82 -1.57,-119.11 -11.98,-174.41 -3.15,-13.77 -5.89,-27.33 -9.67,-40.47 -3.99,-13.04 -7.47,-25.96 -12.61,-37.95 -9.05,-24.6 -21.14,-46.57 -34.59,-65.49 -26.81,-38.38 -60.76,-61.08 -95.87,-71.59 -6.11,-1.9 -12.31,-3.37 -18.51,-4.63 -26.6,52.88 -55.19,104.7 -85.68,155.16 5.68,9.47 11.04,19.03 16.19,28.81 34.9,66.44 57.93,140.14 63.29,213.72 5.26,73.7 -7.89,145.5 -33.75,207.32 -25.97,62.13 -62.44,115.32 -103.65,161.47 l -9.04,-5.26 c 19.02,-58.02 29.32,-117.52 28.06,-173.45 -1.15,-56.04 -15.34,-107.66 -39.1,-150.96 -16.3,-29.44 -36.69,-55.31 -60.03,-78.01 -27.97,36.9 -56.98,72.95 -87.05,108.07 0.84,14.08 1.26,28.38 1.26,42.68 0,169.47 -56.55,325.89 -151.8,451.2 34.8,-86.09 53.93,-180.29 53.93,-278.79 0,-34.48 -2.31,-68.55 -6.93,-101.77 -153.28,157.17 -328.74,292.68 -521.13,401.59 181.04,-190.28 330.22,-410.94 438.91,-653.78 29.76,-66.23 56.45,-134.25 80.01,-203.64 79.47,-234.53 122.58,-486 122.58,-747.45 0,-597.54 -225.08,-1142.42 -595.02,-1554.52 99.66,-50.77 167.88,-154.42 167.88,-273.96 0,-176.29 -148.44,-318.11 -327.26,-306.86 -152.75,9.57 -277.01,133.72 -287,286.47 -0.42,6.84 -0.62,13.56 -0.62,20.19 0,62.02 -48.78,114.48 -110.81,114.79 h -238.22 l -7.67,15.56 c 0,0 -477.18,558.02 -31.64,1017.21 61.81,-17.66 128.46,-21.34 195.85,-8.2 10.51,2 21.02,4.52 31.22,7.36 113.64,31.01 205,106.7 258.3,204.05 0.84,1.27 1.58,2.63 2.31,3.89 2.41,4.42 4.73,9.15 7.04,13.77 10.83,22.29 18.93,45.84 24.49,70.44 -36.79,-43.1 -82.2,-79.06 -134.34,-104.71 -33.02,-16.5 -68.76,-28.7 -106.71,-36.05 -9.04,-1.79 -17.98,-3.16 -26.7,-4.32 h -0.21 c -22.91,-3.04 -45.73,-4.1 -68.23,-3.36 -55.92,1.89 -109.96,14.93 -159.37,37.32 0.21,0.11 0.31,0.32 0.31,0.32 5.36,4.52 11.04,8.72 16.72,13.14 5.57,4.41 11.45,8.51 17.56,12.61 5.98,4.1 11.67,8.62 17.87,12.41 12.51,7.88 24.7,16.19 37.73,23.44 12.84,7.36 25.55,15.24 39.01,21.97 26.28,14.4 53.83,26.91 81.27,39.63 28.06,11.46 55.91,23.66 84.83,33.65 114.7,41.94 235.17,71.16 357.74,90.09 30.6,4.52 61.51,8.1 92.31,12.19 l 47.1,5.99 23.76,2.84 23.86,4 23.65,3.99 23.66,5.15 c 7.99,1.79 15.87,3.16 23.65,5.37 l 23.44,6.62 c 3.9,1.05 7.78,2.1 11.67,3.26 l 11.56,4.1 c 7.79,2.84 15.46,5.25 23.03,8.2 l 22.5,9.98 c 7.67,3.16 14.72,7.68 22.07,11.57 28.7,16.3 56.14,38.16 74.22,67.8 17.67,29.96 22.81,66.34 16.3,98.72 -5.78,32.8 -19.66,62.45 -36.27,89.88 -16.82,27.13 -36.38,52.15 -58.77,74.75 l -5.15,-4.94 c 20.19,-23.45 37.95,-49.3 52.46,-76.54 7.15,-13.56 13.77,-27.43 18.61,-41.94 4.73,-14.4 8.83,-29.12 9.88,-43.84 1.26,-7.36 0.73,-14.71 0.95,-22.07 -0.32,-3.47 -0.84,-7.15 -1.16,-10.73 -0.32,-1.79 -0.42,-3.68 -0.63,-5.36 l -1.37,-5.15 c -2.62,-14.19 -9.46,-26.81 -16.92,-38.68 -16.5,-23.13 -40.9,-40.17 -67.49,-52.89 -6.84,-2.94 -13.25,-6.51 -20.4,-8.83 l -21.13,-7.46 c -7.05,-2.31 -14.51,-4.21 -21.76,-6.1 l -10.93,-3.15 c -3.58,-0.84 -7.47,-1.37 -11.15,-2.21 l -22.38,-4.62 c -7.37,-1.58 -15.15,-2.21 -22.72,-3.47 l -22.6,-3.26 -22.92,-2.21 -22.92,-2.1 -23.12,-1.05 -46.57,-2.42 c -31.75,-1.79 -63.5,-2.73 -95.25,-5.05 -126.99,-9.35 -253.89,-29.54 -378.56,-64.02 -31.22,-8.1 -61.93,-18.5 -92.84,-28.49 -30.58,-11.25 -56.58,-22.62 -86.74,-35.86 -10.09,-5.97 -110.71,-66.83 -118.27,-70.31 26.93,209.05 193.82,313.09 463.66,270.6 l -2.91,3.89 c -43.63,54.35 -101.82,93.13 -169.52,110.58 -23.76,6.2 -48.47,9.68 -73.71,10.31 -19.22,0.31 -38.68,-0.95 -58.23,-4.11 -3.37,-0.52 -6.63,-1.05 -9.99,-1.68 l -0.73,-0.1 c -134.15,-26.07 -232.65,-131.73 -256.09,-258.3 -86.31,33.33 -182.08,45 -279.33,29.75 -59.08,56.14 -101.87,130.36 -118.58,216.46 -13.04,67.07 -8.73,133.41 9.88,194.48 -36.06,14.4 -69.59,33.96 -100.08,57.72 -46.67,-81.37 -65.39,-179.35 -46.04,-278.7 17.66,-90.72 64.23,-168.51 128.46,-225.39 -23.97,-10.09 -46.99,-21.76 -68.96,-34.79 -157.27,77.89 -277.75,225.81 -313.81,411.36 -12.93,66.65 -13.98,132.77 -4.52,196.17 -19.24,5.67 -38.05,12.4 -56.56,20.07 -50.14,-107.54 -67.91,-231.48 -43.52,-357.01 33.22,-171.14 138.13,-310.12 277.53,-391.8 -99.55,-121.11 -146.33,-283.85 -114.05,-449.63 0,0 0.84,-4.21 2.31,-11.78 16.08,-81.16 100.61,-566.85 -110.81,-829.98 h -247.89 c -49.09,-0.21 -87.36,-43.1 -83.89,-92.09 0.52,-7.46 0.84,-14.93 0.84,-22.5 0,-175.98 -147.91,-317.58 -326.42,-306.97 -158.32,9.47 -285.21,141.93 -288.36,300.56 -2.42,117.43 61.18,220.45 156.11,274.17 -373.2,412.84 -600.59,960.23 -600.59,1560.72 0,255.14 41,500.72 116.9,730.42 22.92,69.49 49.1,137.51 78.22,203.95 109.33,249.36 261.13,475.91 446.36,670.5 -199.84,-113.12 -381.29,-254.83 -538.67,-419.77 -7.25,41.73 -11.03,84.52 -11.03,128.25 0,98.51 19.13,192.7 53.93,278.8 -95.25,-125.31 -151.81,-281.74 -151.81,-451.2 0,-24.92 1.27,-49.52 3.68,-73.8 -30.7,-36.8 -60.24,-74.54 -88.62,-113.12 -30.28,29.33 -55.82,63.39 -74.64,102.28 -21.87,46.16 -33.32,99.56 -31.96,156.02 1.37,56.34 14.19,115.11 35.32,171.98 l -9.04,5.26 c -39.1,-47.41 -73.06,-101.34 -96.51,-162.95 -23.23,-61.39 -33.74,-131.4 -26.59,-202.26 7.14,-70.86 31.22,-140.98 66.54,-203.84 7.05,-12.62 14.61,-25.13 22.61,-37.22 -31.75,-52.24 -61.5,-105.96 -89.05,-160.84 -0.21,0 -0.52,0.1 -0.73,0.21 -35.64,11.88 -69.7,36.06 -95.985,75.27 -13.242,19.34 -25.02,41.73 -33.746,66.44 -4.942,12.2 -8.196,25.23 -12.09,38.37 -3.574,13.14 -6.098,26.81 -9.145,40.58 -9.672,55.4 -12.09,114.58 -9.883,174.3 l -10.093,2.73 c -26.907,-54.03 -50.457,-110.91 -66.543,-172.72 -3.469,-15.67 -7.254,-31.33 -9.989,-47.52 -2.418,-16.19 -5.363,-32.58 -6.203,-49.51 -3.047,-33.64 -1.996,-68.97 3.575,-105.23 5.574,-36.17 15.984,-73.49 33.328,-109.44 17.031,-35.85 40.261,-70.44 68.543,-100.61 14.824,-15.87 30.91,-30.69 47.941,-44.25 -21.133,-56.46 -40.055,-114.07 -56.773,-172.52 -40.684,3.79 -80.528,12.82 -117.739,29.01 -44.785,18.93 -85.578,49.41 -118.691,91.78 -32.695,42.47 -56.348,96.19 -70.645,154.12 l -10.515,-0.21 c -10.828,-59.5 -12.926,-123.74 2,-189.23 7.465,-32.59 19.765,-64.97 35.742,-96.19 15.98,-31.44 37.004,-60.56 60.555,-87.68 46.574,-53.41 104.707,-95.98 166.519,-129.09 -15.558,-86.84 -26.387,-175.46 -31.957,-265.35 -38.371,-0.52 -76.324,2.32 -112.805,9.78 -28.484,5.78 -56.238,14.19 -82.836,26.07 -26.285,12.2 -51.093,28.18 -74.007,48.47 -46.153,40.16 -79.586,100.5 -99.453,168.41 l -10.407,-0.42 c -5.258,-35.32 -9.781,-72.64 -6.097,-110.7 2.945,-37.95 10.613,-77.58 26.175,-115.33 15.137,-37.95 36.372,-74.74 62.657,-108.06 26.488,-33.02 57.293,-62.77 90.511,-89.05 62.868,-49.83 133.2,-86.41 205.524,-115.64 4.941,-83.68 14.195,-166.2 27.754,-247.36 -53.403,-5.26 -106.809,-6.94 -159.899,-4.52 -40.261,2.1 -80.105,7.04 -119.32,15.35 -39.316,8.19 -77.266,20.6 -113.535,37.95 -36.059,17.45 -71.172,39.42 -101.555,68.43 -30.277,28.91 -56.664,63.82 -78.32,103.34 l -10.09,-2.94 c 4.941,-45.52 16.398,-91.88 36.059,-136.56 19.765,-44.68 48.359,-86.2 81.785,-123.94 33.535,-37.85 72.332,-71.49 113.961,-100.19 41.632,-28.91 85.679,-54.24 131.093,-76.11 90.832,-43.21 186.286,-75.17 282.895,-98.61 4.84,-1.16 9.566,-2.31 14.406,-3.37 26.071,-82.31 56.664,-162.63 91.568,-240.74 -90.728,-9.04 -182.607,-8.93 -273.755,1.79 -45.52,5.89 -90.832,14.72 -135.61,26.91 -44.894,12.09 -88.312,28.91 -131.101,48.99 l -31.742,15.98 -30.7,17.98 c -10.511,5.89 -20.183,12.82 -30.066,19.55 -9.777,7.05 -20.395,13.35 -29.543,21.13 l -28.484,22.81 c -9.465,7.89 -17.981,16.51 -27.125,24.82 l -13.668,12.72 c -4.414,4.3 -8.411,8.93 -12.719,13.45 l -25.438,27.65 -8.941,-5.47 15.562,-34.9 c 2.625,-5.78 5.149,-11.77 7.989,-17.55 l 9.144,-17.03 c 6.2,-11.25 12.09,-23.03 18.817,-34.07 l 21.238,-33.01 c 6.836,-11.46 15.242,-21.34 23.02,-32.16 7.886,-10.62 15.773,-21.45 24.601,-31.23 l 26.285,-30.38 28.274,-28.7 c 38.695,-37.32 80.742,-72.43 126.05,-102.92 45.309,-30.59 93.04,-58.03 142.446,-82.32 99.136,-47.51 204.265,-83.36 311.808,-108.38 53.828,-12.61 108.278,-22.81 163.578,-30.38 15.87,-2.21 31.75,-4.2 47.73,-5.89 46.15,-69.49 95.98,-136.24 149.18,-200.16 -13.88,-3.78 -27.87,-7.26 -41.85,-10.51 -142.86,-33.33 -292.35,-46.47 -442.477,-35.22 -37.739,2 -74.954,7.46 -112.696,11.99 -37.215,6.83 -75.164,12.19 -112.172,21.65 l -27.965,6.52 -14.085,3.26 -13.77,3.89 -55.508,15.98 c -18.609,5.15 -36.582,12.3 -54.98,18.29 -18.188,6.52 -36.899,12.3 -54.668,19.97 -144.653,56.88 -283.949,134.25 -413.77759,227.6 L 0,3981.45 c 110.594,-116.38 235.695,-221.51 375.305,-309.6 17.031,-11.67 35.215,-21.35 53.09,-31.75 18.082,-10.1 35.742,-21.24 54.242,-30.38 l 55.718,-28.18 14.086,-7.04 14.297,-6.31 28.703,-12.72 c 37.95,-17.66 77.582,-31.43 117.11,-46.57 40.054,-12.93 80.215,-26.71 121.426,-37.01 81.996,-21.65 166.303,-38.15 251.773,-47.09 85.47,-9.04 171.99,-11.99 258.83,-8.62 86.62,3.57 173.46,12.82 259.77,29.32 103.86,-91.45 216.03,-173.87 335.14,-245.78 -31.64,-19.24 -64.13,-37.11 -97.34,-53.61 -78.33,-39.01 -160.64,-70.33 -245.9,-92.62 l -32.06,-7.89 c -10.72,-2.63 -21.45,-5.57 -32.38,-7.26 l -65.29,-11.66 -66.23,-7.78 c -22.07,-2.31 -44.36,-2.63 -66.65,-4.1 -178.61,-6.84 -361.21,25.13 -534.675,88.84 -174.09,62.75 -340.086,153.47 -494.832,261.44 l -6.52,-8.3 c 141.293,-126.05 297.407,-238.33 470.235,-325.37 85.785,-44.68 177.035,-79.58 270.802,-108.39 l 71.18,-19.55 c 23.97,-5.78 48.25,-10.19 72.53,-15.24 12.09,-2.21 24.18,-5.47 36.48,-6.95 l 36.9,-4.93 c 24.6,-3.26 49.31,-7.25 74.22,-8.31 24.81,-1.47 49.84,-3.99 74.86,-4.41 l 75.26,-0.22 c 25.03,1.06 50.15,2.84 75.28,4.21 12.61,0.53 25.12,2.32 37.63,3.79 l 37.53,4.52 c 100.08,13.56 199.12,37.95 294.89,72.01 90.72,32.38 178.82,72.86 262.6,121.53 32.38,-14.61 65.18,-28.39 98.3,-41.53 18.08,-91.46 42.05,-182.82 71.59,-274.27 l 24.18,-71.81 26.38,-71.9 c 8.73,-23.87 18.61,-47.84 28.7,-71.8 10.94,-23.98 20.82,-47.84 32.7,-71.81 22.71,-47.94 48.56,-95.77 76.32,-143.71 28.7,-47.83 58.77,-95.77 92.93,-143.6 67.81,-95.77 146.65,-191.55 241.58,-287.32 97.14,-95.76 201.85,-191.53 347.34,-287.3 h 15.67 c 145.5,95.77 250.2,191.54 347.34,287.3 94.93,95.77 173.78,191.55 241.58,287.32 34.17,47.83 64.24,95.77 92.83,143.6 27.86,47.94 53.61,95.77 76.43,143.71 11.77,23.97 21.75,47.83 32.69,71.81 9.99,23.96 19.87,47.93 28.7,71.8 l 26.39,71.9 24.18,71.81 c 28.91,89.88 52.67,179.76 70.54,269.65 35.95,13.98 71.59,28.8 106.6,44.57 10.3,-6.21 20.71,-12.3 31.22,-18.19 90.3,-52.24 185.45,-95.03 283.43,-128.46 97.98,-33.33 199.11,-56.88 300.97,-69.28 l 38.26,-4.1 c 12.84,-1.26 25.44,-2.94 38.28,-3.26 25.65,-1.05 51.19,-2.53 76.63,-3.26 l 76.32,1.37 c 25.34,0.73 50.68,3.68 75.9,5.47 25.24,1.46 50.15,5.88 75.07,9.45 l 37.21,5.58 c 12.41,1.68 24.6,5.05 36.9,7.57 24.39,5.46 48.99,10.19 73.07,16.39 l 71.59,20.82 c 94.3,30.49 185.75,66.97 271.33,113.32 172.52,90.1 327.27,205.11 466.66,333.58 l -6.42,8.2 c -156.63,-105.55 -324.1,-193.54 -498.5,-253.15 -173.78,-60.55 -355.44,-89.05 -531.53,-79.16 -21.97,1.78 -43.94,2.53 -65.71,5.15 l -65.07,8.83 -64.02,12.73 c -10.72,1.88 -21.24,4.94 -31.64,7.67 l -31.44,8.41 c -83.46,23.44 -163.68,55.6 -239.68,95.35 -38.28,19.97 -75.49,41.73 -111.44,65.28 101.97,65.6 198.58,138.98 288.89,219.19 5.25,-1.16 10.61,-2.2 15.88,-3.15"
         style="fill:#100f0d;fill-opacity:1;fill-rule:nonzero;stroke:none"
         id="path26" />
    </g>
  </g>
</svg>
